<svg width="169" height="154" viewBox="0 0 169 154" fill="none" xmlns="http://www.w3.org/2000/svg">
<circle cx="-2.5" cy="3.5" r="3.5" fill="#DC7000" fill-opacity="0.35"/>
<circle cx="18.5" cy="3.5" r="3.5" fill="#DC7000" fill-opacity="0.35"/>
<circle cx="39.5" cy="3.5" r="3.5" fill="#DC7000" fill-opacity="0.35"/>
<circle cx="60.5" cy="3.5" r="3.5" fill="#DC7000" fill-opacity="0.35"/>
<circle cx="81.5" cy="3.5" r="3.5" fill="#DC7000" fill-opacity="0.35"/>
<circle cx="102.5" cy="3.5" r="3.5" fill="#DC7000" fill-opacity="0.35"/>
<circle cx="123.5" cy="3.5" r="3.5" fill="#DC7000" fill-opacity="0.35"/>
<circle cx="144.5" cy="3.5" r="3.5" fill="#DC7000" fill-opacity="0.35"/>
<circle cx="165.5" cy="3.5" r="3.5" fill="#DC7000" fill-opacity="0.35"/>
<circle cx="-2.5" cy="24.5" r="3.5" fill="#DC7000" fill-opacity="0.35"/>
<circle cx="18.5" cy="24.5" r="3.5" fill="#DC7000" fill-opacity="0.35"/>
<circle cx="39.5" cy="24.5" r="3.5" fill="#DC7000" fill-opacity="0.35"/>
<circle cx="60.5" cy="24.5" r="3.5" fill="#DC7000" fill-opacity="0.35"/>
<circle cx="81.5" cy="24.5" r="3.5" fill="#DC7000" fill-opacity="0.35"/>
<circle cx="102.5" cy="24.5" r="3.5" fill="#DC7000" fill-opacity="0.35"/>
<circle cx="123.5" cy="24.5" r="3.5" fill="#DC7000" fill-opacity="0.35"/>
<circle cx="144.5" cy="24.5" r="3.5" fill="#DC7000" fill-opacity="0.35"/>
<circle cx="165.5" cy="24.5" r="3.5" fill="#DC7000" fill-opacity="0.35"/>
<circle cx="-2.5" cy="45.5" r="3.5" fill="#DC7000" fill-opacity="0.35"/>
<circle cx="18.5" cy="45.5" r="3.5" fill="#DC7000" fill-opacity="0.35"/>
<circle cx="39.5" cy="45.5" r="3.5" fill="#DC7000" fill-opacity="0.35"/>
<circle cx="60.5" cy="45.5" r="3.5" fill="#DC7000" fill-opacity="0.35"/>
<circle cx="81.5" cy="45.5" r="3.5" fill="#DC7000" fill-opacity="0.35"/>
<circle cx="102.5" cy="45.5" r="3.5" fill="#DC7000" fill-opacity="0.35"/>
<circle cx="123.5" cy="45.5" r="3.5" fill="#DC7000" fill-opacity="0.35"/>
<circle cx="144.5" cy="45.5" r="3.5" fill="#DC7000" fill-opacity="0.35"/>
<circle cx="165.5" cy="45.5" r="3.5" fill="#DC7000" fill-opacity="0.35"/>
<circle cx="-2.5" cy="66.5" r="3.5" fill="#DC7000" fill-opacity="0.35"/>
<circle cx="18.5" cy="66.5" r="3.5" fill="#DC7000" fill-opacity="0.35"/>
<circle cx="39.5" cy="66.5" r="3.5" fill="#DC7000" fill-opacity="0.35"/>
<circle cx="60.5" cy="66.5" r="3.5" fill="#DC7000" fill-opacity="0.35"/>
<circle cx="81.5" cy="66.5" r="3.5" fill="#DC7000" fill-opacity="0.35"/>
<circle cx="102.5" cy="66.5" r="3.5" fill="#DC7000" fill-opacity="0.35"/>
<circle cx="123.5" cy="66.5" r="3.5" fill="#DC7000" fill-opacity="0.35"/>
<circle cx="144.5" cy="66.5" r="3.5" fill="#DC7000" fill-opacity="0.35"/>
<circle cx="165.5" cy="66.5" r="3.5" fill="#DC7000" fill-opacity="0.35"/>
<circle cx="-2.5" cy="87.5" r="3.5" fill="#DC7000" fill-opacity="0.35"/>
<circle cx="18.5" cy="87.5" r="3.5" fill="#DC7000" fill-opacity="0.35"/>
<circle cx="39.5" cy="87.5" r="3.5" fill="#DC7000" fill-opacity="0.35"/>
<circle cx="60.5" cy="87.5" r="3.5" fill="#DC7000" fill-opacity="0.35"/>
<circle cx="81.5" cy="87.5" r="3.5" fill="#DC7000" fill-opacity="0.35"/>
<circle cx="102.5" cy="87.5" r="3.5" fill="#DC7000" fill-opacity="0.35"/>
<circle cx="123.5" cy="87.5" r="3.5" fill="#DC7000" fill-opacity="0.35"/>
<circle cx="144.5" cy="87.5" r="3.5" fill="#DC7000" fill-opacity="0.35"/>
<circle cx="165.5" cy="87.5" r="3.5" fill="#DC7000" fill-opacity="0.35"/>
<circle cx="-2.5" cy="108.5" r="3.5" fill="#DC7000" fill-opacity="0.35"/>
<circle cx="18.5" cy="108.5" r="3.5" fill="#DC7000" fill-opacity="0.35"/>
<circle cx="39.5" cy="108.5" r="3.5" fill="#DC7000" fill-opacity="0.35"/>
<circle cx="60.5" cy="108.5" r="3.5" fill="#DC7000" fill-opacity="0.35"/>
<circle cx="81.5" cy="108.5" r="3.5" fill="#DC7000" fill-opacity="0.35"/>
<circle cx="102.5" cy="108.5" r="3.5" fill="#DC7000" fill-opacity="0.35"/>
<circle cx="123.5" cy="108.5" r="3.5" fill="#DC7000" fill-opacity="0.35"/>
<circle cx="144.5" cy="108.5" r="3.5" fill="#DC7000" fill-opacity="0.35"/>
<circle cx="165.5" cy="108.5" r="3.5" fill="#DC7000" fill-opacity="0.35"/>
<circle cx="-2.5" cy="129.5" r="3.5" fill="#DC7000" fill-opacity="0.35"/>
<circle cx="18.5" cy="129.5" r="3.5" fill="#DC7000" fill-opacity="0.35"/>
<circle cx="39.5" cy="129.5" r="3.5" fill="#DC7000" fill-opacity="0.35"/>
<circle cx="60.5" cy="129.5" r="3.5" fill="#DC7000" fill-opacity="0.35"/>
<circle cx="81.5" cy="129.5" r="3.5" fill="#DC7000" fill-opacity="0.35"/>
<circle cx="102.5" cy="129.5" r="3.5" fill="#DC7000" fill-opacity="0.35"/>
<circle cx="123.5" cy="129.5" r="3.5" fill="#DC7000" fill-opacity="0.35"/>
<circle cx="144.5" cy="129.5" r="3.5" fill="#DC7000" fill-opacity="0.35"/>
<circle cx="165.5" cy="129.5" r="3.5" fill="#DC7000" fill-opacity="0.35"/>
<circle cx="-2.5" cy="129.5" r="3.5" fill="#DC7000" fill-opacity="0.35"/>
<circle cx="18.5" cy="129.5" r="3.5" fill="#DC7000" fill-opacity="0.35"/>
<circle cx="39.5" cy="129.5" r="3.5" fill="#DC7000" fill-opacity="0.35"/>
<circle cx="60.5" cy="129.5" r="3.5" fill="#DC7000" fill-opacity="0.35"/>
<circle cx="81.5" cy="129.5" r="3.5" fill="#DC7000" fill-opacity="0.35"/>
<circle cx="102.5" cy="129.5" r="3.5" fill="#DC7000" fill-opacity="0.35"/>
<circle cx="123.5" cy="129.5" r="3.5" fill="#DC7000" fill-opacity="0.35"/>
<circle cx="144.5" cy="129.5" r="3.5" fill="#DC7000" fill-opacity="0.35"/>
<circle cx="165.5" cy="129.5" r="3.5" fill="#DC7000" fill-opacity="0.35"/>
<circle cx="-2.5" cy="150.5" r="3.5" fill="#DC7000" fill-opacity="0.35"/>
<circle cx="18.5" cy="150.5" r="3.5" fill="#DC7000" fill-opacity="0.35"/>
<circle cx="39.5" cy="150.5" r="3.5" fill="#DC7000" fill-opacity="0.35"/>
<circle cx="60.5" cy="150.5" r="3.5" fill="#DC7000" fill-opacity="0.35"/>
<circle cx="81.5" cy="150.5" r="3.5" fill="#DC7000" fill-opacity="0.35"/>
<circle cx="102.5" cy="150.5" r="3.5" fill="#DC7000" fill-opacity="0.35"/>
<circle cx="123.5" cy="150.5" r="3.5" fill="#DC7000" fill-opacity="0.35"/>
<circle cx="144.5" cy="150.5" r="3.5" fill="#DC7000" fill-opacity="0.35"/>
<circle cx="165.5" cy="150.5" r="3.5" fill="#DC7000" fill-opacity="0.35"/>
</svg>
