<svg width="193" height="32" viewBox="0 0 193 32" fill="none" xmlns="http://www.w3.org/2000/svg">
<path d="M0 16C0 7.16344 7.16344 0 16 0H37C45.8366 0 53 7.16344 53 16V32H16C7.16344 32 0 24.8366 0 16Z" fill="url(#paint0_linear_244_973)"/>
<path d="M37 6H16C10.4772 6 6 10.4772 6 16C6 21.5228 10.4772 26 16 26H37C42.5228 26 47 21.5228 47 16C47 10.4772 42.5228 6 37 6Z" fill="#E1F2FF"/>
<path d="M64.85 15.8979C64.85 18.6039 66.4339 20.3859 68.9419 20.3859C71.4059 20.3859 73.0119 18.6039 73.0119 15.8979C73.0119 13.1479 71.4059 11.41 68.9419 11.41C66.4339 11.41 64.85 13.1479 64.85 15.8979ZM76.8398 15.8979C76.8398 18.6039 75.6518 20.8259 73.8039 22.2338L77.1918 26.3038H72.6379L70.6579 23.6418C70.1079 23.7518 69.5359 23.8178 68.9419 23.8178C64.564 23.8178 61 20.5399 61 15.8979C61 11.256 64.564 8 68.9419 8C73.3419 8 76.8398 11.256 76.8398 15.8979Z" fill="#6CD3FF"/>
<path d="M91.0975 11.388V23.6638H87.3356V21.9918C86.5876 23.0478 85.2676 23.7958 83.6176 23.7958C80.7797 23.7958 78.8657 21.8378 78.8657 18.5599V11.388H82.6056V18.0539C82.6056 19.7259 83.5516 20.6499 84.9596 20.6499C86.4116 20.6499 87.3356 19.7259 87.3356 18.0539V11.388H91.0975Z" fill="#6CD3FF"/>
<path d="M99.2117 14.2259C97.9797 14.2259 97.0337 14.9739 96.8137 16.3379H101.522C101.522 14.9959 100.466 14.2259 99.2117 14.2259ZM105.086 19.5939C104.492 21.9918 102.314 23.8398 99.2557 23.8398C95.6477 23.8398 93.0517 21.4198 93.0517 17.5259C93.0517 13.6319 95.6037 11.212 99.2557 11.212C102.842 11.212 105.372 13.5879 105.372 17.3279C105.372 17.6799 105.35 18.0539 105.306 18.4279H96.7917C96.9237 20.0339 97.9137 20.7819 99.1237 20.7819C100.18 20.7819 100.774 20.2539 101.082 19.5939H105.086Z" fill="#6CD3FF"/>
<path d="M119.478 11.388V23.6638H115.716V21.9918C114.968 23.0478 113.648 23.7958 111.998 23.7958C109.16 23.7958 107.246 21.8378 107.246 18.5599V11.388H110.986V18.0539C110.986 19.7259 111.932 20.6499 113.34 20.6499C114.792 20.6499 115.716 19.7259 115.716 18.0539V11.388H119.478Z" fill="#6CD3FF"/>
<path d="M127.592 14.2259C126.36 14.2259 125.414 14.9739 125.194 16.3379H129.902C129.902 14.9959 128.846 14.2259 127.592 14.2259ZM133.466 19.5939C132.872 21.9918 130.694 23.8398 127.636 23.8398C124.028 23.8398 121.432 21.4198 121.432 17.5259C121.432 13.6319 123.984 11.212 127.636 11.212C131.222 11.212 133.752 13.5879 133.752 17.3279C133.752 17.6799 133.73 18.0539 133.686 18.4279H125.172C125.304 20.0339 126.294 20.7819 127.504 20.7819C128.56 20.7819 129.154 20.2539 129.462 19.5939H133.466Z" fill="#6CD3FF"/>
<path d="M145.197 8.22V11.234H139.499V14.3579H144.537V17.2619H139.499V20.6499H145.197V23.6638H135.737V8.22H145.197Z" fill="#6CD3FF"/>
<path d="M146.891 17.5039C146.891 13.6319 149.289 11.212 152.303 11.212C154.129 11.212 155.427 12.048 156.087 13.1259V11.388H159.849V23.6638H156.087V21.9258C155.405 23.0038 154.107 23.8398 152.281 23.8398C149.289 23.8398 146.891 21.3759 146.891 17.5039ZM156.087 17.5259C156.087 15.5679 154.833 14.4899 153.403 14.4899C151.995 14.4899 150.719 15.5459 150.719 17.5039C150.719 19.4619 151.995 20.5619 153.403 20.5619C154.833 20.5619 156.087 19.4839 156.087 17.5259Z" fill="#6CD3FF"/>
<path d="M172.536 20.0999C172.536 22.2338 170.644 23.8398 167.564 23.8398C164.286 23.8398 162.086 22.0138 161.91 19.6379H165.628C165.716 20.4959 166.486 21.0679 167.52 21.0679C168.488 21.0679 168.994 20.6279 168.994 20.0779C168.994 18.0979 162.306 19.5279 162.306 15.0179C162.306 12.9279 164.088 11.212 167.3 11.212C170.468 11.212 172.228 12.9719 172.47 15.3919H168.994C168.884 14.5559 168.246 14.0059 167.19 14.0059C166.31 14.0059 165.826 14.3579 165.826 14.9519C165.826 16.9099 172.47 15.5239 172.536 20.0999Z" fill="#6CD3FF"/>
<path d="M180.25 14.2259C179.018 14.2259 178.072 14.9739 177.852 16.3379H182.56C182.56 14.9959 181.504 14.2259 180.25 14.2259ZM186.124 19.5939C185.53 21.9918 183.352 23.8398 180.294 23.8398C176.686 23.8398 174.09 21.4198 174.09 17.5259C174.09 13.6319 176.642 11.212 180.294 11.212C183.88 11.212 186.41 13.5879 186.41 17.3279C186.41 17.6799 186.388 18.0539 186.344 18.4279H177.83C177.962 20.0339 178.952 20.7819 180.162 20.7819C181.218 20.7819 181.812 20.2539 182.12 19.5939H186.124Z" fill="#6CD3FF"/>
<path d="M192.376 21.8158C192.376 22.9378 191.474 23.8398 190.154 23.8398C188.812 23.8398 187.91 22.9378 187.91 21.8158C187.91 20.6499 188.812 19.7479 190.154 19.7479C191.474 19.7479 192.376 20.6499 192.376 21.8158Z" fill="#6CD3FF"/>
<defs>
<linearGradient id="paint0_linear_244_973" x1="11.7573" y1="29.2008" x2="27.7252" y2="-3.75613" gradientUnits="userSpaceOnUse">
<stop stop-color="#6BD4FF"/>
<stop offset="1" stop-color="#8C70FF"/>
</linearGradient>
</defs>
</svg>
